<?xml version="1.0" encoding="UTF-8" standalone="no"?>
<!-- Created with Inkscape (http://www.inkscape.org/) -->
<svg id="svg2" xmlns:rdf="http://www.w3.org/1999/02/22-rdf-syntax-ns#" xmlns="http://www.w3.org/2000/svg" height="312.26" width="338.72" version="1.1" xmlns:cc="http://creativecommons.org/ns#" xmlns:dc="http://purl.org/dc/elements/1.1/">
 <metadata id="metadata7">
  <rdf:RDF>
   <cc:Work rdf:about="">
    <dc:format>image/svg+xml</dc:format>
    <dc:type rdf:resource="http://purl.org/dc/dcmitype/StillImage"/>
    <dc:title/>
   </cc:Work>
  </rdf:RDF>
 </metadata>
 <g id="layer1" transform="translate(-186.99 -385.88)">
  <g id="layer1-9" fill="#999" transform="matrix(.58779 -.80902 .80902 .58779 -483.87 117.88)">
   <g id="g3848" transform="matrix(.33539 .47129 -.47129 .33539 121.53 696.48)" fill="#999">
    <path id="path3812" d="m414.29 396.65a70 70 0 1 1 -140 0 70 70 0 1 1 140 0z" transform="matrix(.69695 0 0 .69695 107.02 136.77)"/>
    <path id="path3814" d="m357.12 75.219c-88.706 0-167.25 33.723-215.5 85.562l40 61.656c35.116-46.921 100.55-78.469 175.5-78.469 69.397 0 130.64 27.063 167.22 68.312l41.47-58.53c-48.66-47.85-124.05-78.531-208.69-78.531z"/>
    <path id="path3822" d="m350 229.5c-50.457 0-96.517 18.781-131.56 49.688l33.781 52.094c26.41-22.23 60.51-35.66 97.78-35.66 34.984 0 67.177 11.815 92.844 31.656l35.844-50.625c-34.67-29.42-79.59-47.16-128.68-47.16z"/>
    <path id="path3824" d="m372.16 138.25c-116.58 0-221.31 45.127-293.44 116.81l37.906 58.406c53.301-61.704 147.01-102.69 253.78-102.69 105.95 0 199.07 40.34 252.59 101.25l41.31-58.28c-72.1-70.93-176.27-115.5-292.15-115.5z" transform="translate(-16.162 -216.17)"/>
   </g>
  </g>
 </g>
</svg>
