<?xml version="1.0" encoding="UTF-8" standalone="no"?>
<!-- Created with Inkscape (http://www.inkscape.org/) -->
<svg id="svg4262" xmlns:rdf="http://www.w3.org/1999/02/22-rdf-syntax-ns#" xmlns="http://www.w3.org/2000/svg" height="429.95" width="414.75" version="1.1" xmlns:cc="http://creativecommons.org/ns#" xmlns:dc="http://purl.org/dc/elements/1.1/">
 <metadata id="metadata4267">
  <rdf:RDF>
   <cc:Work rdf:about="">
    <dc:format>image/svg+xml</dc:format>
    <dc:type rdf:resource="http://purl.org/dc/dcmitype/StillImage"/>
    <dc:title/>
   </cc:Work>
  </rdf:RDF>
 </metadata>
 <g id="layer1" transform="translate(-121.2 -320.24)" stroke="#b3b3b3" stroke-linecap="round" stroke-miterlimit="6" stroke-width="9.75" fill="none">
  <path id="path4303" d="m208.57 535.22 210 210v-420l-210 210"/>
  <path id="path4305" d="m478.57 415.22h-60"/>
  <path id="path4307" d="m478.57 655.22h-60"/>
  <path id="path4309" d="m531.07 415.22c0-12.43-10.07-22.5-22.5-22.5s-22.5 10.07-22.5 22.5 10.07 22.5 22.5 22.5 22.5-10.07 22.5-22.5"/>
  <path id="path4311" d="m486.07 415.22h-37.5"/>
  <path id="path4313" d="m531.07 655.22c0-12.426-10.07-22.5-22.5-22.5s-22.5 10.074-22.5 22.5 10.07 22.5 22.5 22.5 22.5-10.074 22.5-22.5"/>
  <path id="path4315" d="m486.07 655.22h-37.5"/>
  <path id="path4317" d="m126.07 535.22c0 12.426 10.074 22.5 22.5 22.5s22.5-10.074 22.5-22.5-10.074-22.5-22.5-22.5-22.5 10.074-22.5 22.5"/>
  <path id="path4319" d="m171.07 535.22h37.5"/>
 </g>
</svg>
